<svg version="1.1" xmlns="http://www.w3.org/2000/svg" viewBox="0 0 1496.830078125 1039.25" width="1496.830078125" height="1039.25">
  <!-- svg-source:excalidraw -->
  
  <defs>
    <style class="style-fonts">
      @font-face {
        font-family: "Virgil";
        src: url("https://excalidraw.com/Virgil.woff2");
      }
      @font-face {
        font-family: "Cascadia";
        src: url("https://excalidraw.com/Cascadia.woff2");
      }
    </style>
  </defs>
  <rect x="0" y="0" width="1496.830078125" height="1039.25" fill="#ffffff"></rect><g stroke-linecap="round" transform="translate(314 110) rotate(0 346 76)"><path d="M0 0 C211.53 0, 423.06 0, 692 0 M0 0 C169.94 0, 339.87 0, 692 0 M692 0 C692 31.13, 692 62.26, 692 152 M692 0 C692 57, 692 114, 692 152 M692 152 C435.12 152, 178.24 152, 0 152 M692 152 C418.04 152, 144.08 152, 0 152 M0 152 C0 115.81, 0 79.61, 0 0 M0 152 C0 98.59, 0 45.18, 0 0" stroke="#1e1e1e" stroke-width="1" fill="none"></path></g><g stroke-linecap="round" transform="translate(315 112) rotate(0 69 74)"><path d="M0 0 C49.23 0, 98.46 0, 138 0 M0 0 C39.05 0, 78.1 0, 138 0 M138 0 C138 41.38, 138 82.76, 138 148 M138 0 C138 34.3, 138 68.6, 138 148 M138 148 C84.38 148, 30.76 148, 0 148 M138 148 C109.56 148, 81.13 148, 0 148 M0 148 C0 97.03, 0 46.06, 0 0 M0 148 C0 93.54, 0 39.07, 0 0" stroke="#1e1e1e" stroke-width="1" fill="none"></path></g><g stroke-linecap="round" transform="translate(453 112) rotate(0 69 74)"><path d="M0 0 C47.96 0, 95.91 0, 138 0 M0 0 C32.98 0, 65.97 0, 138 0 M138 0 C138 42.9, 138 85.81, 138 148 M138 0 C138 55.62, 138 111.24, 138 148 M138 148 C95.04 148, 52.08 148, 0 148 M138 148 C87.66 148, 37.31 148, 0 148 M0 148 C0 114.24, 0 80.47, 0 0 M0 148 C0 94.77, 0 41.54, 0 0" stroke="#1e1e1e" stroke-width="1" fill="none"></path></g><g stroke-linecap="round" transform="translate(592 112) rotate(0 69 74)"><path d="M0 0 C29.75 0, 59.5 0, 138 0 M0 0 C36.46 0, 72.93 0, 138 0 M138 0 C138 50.52, 138 101.03, 138 148 M138 0 C138 50.18, 138 100.36, 138 148 M138 148 C90.4 148, 42.8 148, 0 148 M138 148 C92.34 148, 46.68 148, 0 148 M0 148 C0 107.78, 0 67.56, 0 0 M0 148 C0 95.91, 0 43.81, 0 0" stroke="#1e1e1e" stroke-width="1" fill="none"></path></g><g stroke-linecap="round" transform="translate(729 112) rotate(0 69 74)"><path d="M0 0 C45.66 0, 91.32 0, 138 0 M0 0 C37.5 0, 75 0, 138 0 M138 0 C138 52.09, 138 104.19, 138 148 M138 0 C138 33.69, 138 67.39, 138 148 M138 148 C91.09 148, 44.18 148, 0 148 M138 148 C92.13 148, 46.26 148, 0 148 M0 148 C0 110.33, 0 72.67, 0 0 M0 148 C0 92.86, 0 37.72, 0 0" stroke="#1e1e1e" stroke-width="1" fill="none"></path></g><g stroke-linecap="round" transform="translate(868 112) rotate(0 69 74)"><path d="M0 0 C48.93 0, 97.86 0, 138 0 M0 0 C36.72 0, 73.44 0, 138 0 M138 0 C138 56.73, 138 113.45, 138 148 M138 0 C138 45.9, 138 91.8, 138 148 M138 148 C95.94 148, 53.88 148, 0 148 M138 148 C90.18 148, 42.35 148, 0 148 M0 148 C0 112.84, 0 77.69, 0 0 M0 148 C0 104.28, 0 60.56, 0 0" stroke="#1e1e1e" stroke-width="1" fill="none"></path></g><g transform="translate(341 78) rotate(0 47.8076171875 11.5)"><text x="0" y="0" font-family="Helvetica, Segoe UI Emoji" font-size="20px" fill="#1e1e1e" text-anchor="start" style="white-space: pre;" direction="ltr" dominant-baseline="text-before-edge">posicion: 0</text></g><g transform="translate(474 76) rotate(0 47.8076171875 11.5)"><text x="0" y="0" font-family="Helvetica, Segoe UI Emoji" font-size="20px" fill="#1e1e1e" text-anchor="start" style="white-space: pre;" direction="ltr" dominant-baseline="text-before-edge">posicion: 1</text></g><g transform="translate(616 78) rotate(0 47.8076171875 11.5)"><text x="0" y="0" font-family="Helvetica, Segoe UI Emoji" font-size="20px" fill="#1e1e1e" text-anchor="start" style="white-space: pre;" direction="ltr" dominant-baseline="text-before-edge">posicion: 2</text></g><g transform="translate(749 80) rotate(0 47.8076171875 11.5)"><text x="0" y="0" font-family="Helvetica, Segoe UI Emoji" font-size="20px" fill="#1e1e1e" text-anchor="start" style="white-space: pre;" direction="ltr" dominant-baseline="text-before-edge">posicion: 3</text></g><g transform="translate(893 79) rotate(0 47.8076171875 11.5)"><text x="0" y="0" font-family="Helvetica, Segoe UI Emoji" font-size="20px" fill="#1e1e1e" text-anchor="start" style="white-space: pre;" direction="ltr" dominant-baseline="text-before-edge">posicion: 4</text></g><g stroke-linecap="round"><g transform="translate(803 275) rotate(0 0 47)"><path d="M0 0 C0 29.75, 0 59.5, 0 94 M0 0 C0 35.01, 0 70.02, 0 94" stroke="#1e1e1e" stroke-width="1" fill="none"></path></g><g transform="translate(803 275) rotate(0 0 47)"><path d="M-10.26 65.81 C-7.01 74.73, -3.77 83.65, 0 94 M-10.26 65.81 C-6.44 76.31, -2.62 86.81, 0 94" stroke="#1e1e1e" stroke-width="1" fill="none"></path></g><g transform="translate(803 275) rotate(0 0 47)"><path d="M10.26 65.81 C7.01 74.73, 3.77 83.65, 0 94 M10.26 65.81 C6.44 76.31, 2.62 86.81, 0 94" stroke="#1e1e1e" stroke-width="1" fill="none"></path></g></g><mask></mask><g stroke-linecap="round" transform="translate(738 379) rotate(0 65 65)"><path d="M0 0 C37.39 0, 74.77 0, 130 0 M0 0 C41.75 0, 83.5 0, 130 0 M130 0 C130 40.15, 130 80.3, 130 130 M130 0 C130 48.3, 130 96.59, 130 130 M130 130 C98.66 130, 67.33 130, 0 130 M130 130 C94.24 130, 58.49 130, 0 130 M0 130 C0 92.37, 0 54.75, 0 0 M0 130 C0 89.41, 0 48.82, 0 0" stroke="#1e1e1e" stroke-width="1" fill="none"></path></g><g stroke-linecap="round"><g transform="translate(377 279) rotate(0 0 47)"><path d="M0 0 C0 24.96, 0 49.92, 0 94 M0 0 C0 27.11, 0 54.22, 0 94" stroke="#1e1e1e" stroke-width="1" fill="none"></path></g><g transform="translate(377 279) rotate(0 0 47)"><path d="M-10.26 65.81 C-7.54 73.3, -4.81 80.78, 0 94 M-10.26 65.81 C-7.3 73.94, -4.34 82.07, 0 94" stroke="#1e1e1e" stroke-width="1" fill="none"></path></g><g transform="translate(377 279) rotate(0 0 47)"><path d="M10.26 65.81 C7.54 73.3, 4.81 80.78, 0 94 M10.26 65.81 C7.3 73.94, 4.34 82.07, 0 94" stroke="#1e1e1e" stroke-width="1" fill="none"></path></g></g><mask></mask><g stroke-linecap="round" transform="translate(312 383) rotate(0 65 65)"><path d="M0 0 C28.71 0, 57.42 0, 130 0 M0 0 C38.43 0, 76.87 0, 130 0 M130 0 C130 33.3, 130 66.61, 130 130 M130 0 C130 28.1, 130 56.21, 130 130 M130 130 C81.33 130, 32.65 130, 0 130 M130 130 C81.26 130, 32.52 130, 0 130 M0 130 C0 84.56, 0 39.12, 0 0 M0 130 C0 102.25, 0 74.51, 0 0" stroke="#1e1e1e" stroke-width="1" fill="none"></path></g><g stroke-linecap="round"><g transform="translate(658 273) rotate(0 0 47)"><path d="M0 0 C0 20.5, 0 41, 0 94 M0 0 C0 33.35, 0 66.7, 0 94" stroke="#1e1e1e" stroke-width="1" fill="none"></path></g><g transform="translate(658 273) rotate(0 0 47)"><path d="M-10.26 65.81 C-8.02 71.96, -5.79 78.11, 0 94 M-10.26 65.81 C-6.62 75.81, -2.98 85.81, 0 94" stroke="#1e1e1e" stroke-width="1" fill="none"></path></g><g transform="translate(658 273) rotate(0 0 47)"><path d="M10.26 65.81 C8.02 71.96, 5.79 78.11, 0 94 M10.26 65.81 C6.62 75.81, 2.98 85.81, 0 94" stroke="#1e1e1e" stroke-width="1" fill="none"></path></g></g><mask></mask><g stroke-linecap="round" transform="translate(593 377) rotate(0 65 65)"><path d="M0 0 C41.07 0, 82.14 0, 130 0 M0 0 C37.93 0, 75.86 0, 130 0 M130 0 C130 30.9, 130 61.79, 130 130 M130 0 C130 26.83, 130 53.67, 130 130 M130 130 C80.94 130, 31.89 130, 0 130 M130 130 C95.63 130, 61.26 130, 0 130 M0 130 C0 101.38, 0 72.77, 0 0 M0 130 C0 103.89, 0 77.79, 0 0" stroke="#1e1e1e" stroke-width="1" fill="none"></path></g><g transform="translate(352 10) rotate(0 298.5107421875 11.5)"><text x="0" y="0" font-family="Helvetica, Segoe UI Emoji" font-size="20px" fill="#1e1e1e" text-anchor="start" style="white-space: pre;" direction="ltr" dominant-baseline="text-before-edge">Tabla de hash cerrada con direccionamiento abierto (probing lineal)</text></g><g stroke-linecap="round" transform="translate(29.38916015625 320.75) rotate(0 65 65)"><path d="M0 0 C35.43 0, 70.87 0, 130 0 M0 0 C44.57 0, 89.13 0, 130 0 M130 0 C130 39.24, 130 78.48, 130 130 M130 0 C130 51.09, 130 102.18, 130 130 M130 130 C89.2 130, 48.4 130, 0 130 M130 130 C93.51 130, 57.03 130, 0 130 M0 130 C0 85.82, 0 41.64, 0 0 M0 130 C0 90.75, 0 51.51, 0 0" stroke="#1e1e1e" stroke-width="1" fill="none"></path></g><g transform="translate(45 290) rotate(0 47.8076171875 11.5)"><text x="0" y="0" font-family="Helvetica, Segoe UI Emoji" font-size="20px" fill="#1e1e1e" text-anchor="start" style="white-space: pre;" direction="ltr" dominant-baseline="text-before-edge">posicion: 3</text></g><g stroke-linecap="round" transform="translate(328.305419921875 626.25) rotate(0 346 76)"><path d="M0 0 C187.62 0, 375.24 0, 692 0 M0 0 C212.18 0, 424.36 0, 692 0 M692 0 C692 50.03, 692 100.06, 692 152 M692 0 C692 55.95, 692 111.89, 692 152 M692 152 C473.52 152, 255.04 152, 0 152 M692 152 C465.76 152, 239.53 152, 0 152 M0 152 C0 92.43, 0 32.85, 0 0 M0 152 C0 113.36, 0 74.71, 0 0" stroke="#1e1e1e" stroke-width="1" fill="none"></path></g><g stroke-linecap="round" transform="translate(329.305419921875 628.25) rotate(0 69 74)"><path d="M0 0 C30.66 0, 61.32 0, 138 0 M0 0 C44.19 0, 88.38 0, 138 0 M138 0 C138 30.79, 138 61.59, 138 148 M138 0 C138 48.38, 138 96.77, 138 148 M138 148 C106.11 148, 74.22 148, 0 148 M138 148 C91.43 148, 44.87 148, 0 148 M0 148 C0 110.34, 0 72.69, 0 0 M0 148 C0 104.47, 0 60.93, 0 0" stroke="#1e1e1e" stroke-width="1" fill="none"></path></g><g stroke-linecap="round" transform="translate(467.305419921875 628.25) rotate(0 69 74)"><path d="M0 0 C37.15 0, 74.31 0, 138 0 M0 0 C50.72 0, 101.44 0, 138 0 M138 0 C138 49.57, 138 99.14, 138 148 M138 0 C138 54.57, 138 109.15, 138 148 M138 148 C91.08 148, 44.15 148, 0 148 M138 148 C95.66 148, 53.32 148, 0 148 M0 148 C0 91.15, 0 34.3, 0 0 M0 148 C0 101.95, 0 55.9, 0 0" stroke="#1e1e1e" stroke-width="1" fill="none"></path></g><g stroke-linecap="round" transform="translate(606.305419921875 628.25) rotate(0 69 74)"><path d="M0 0 C54.74 0, 109.47 0, 138 0 M0 0 C46.44 0, 92.89 0, 138 0 M138 0 C138 35.16, 138 70.32, 138 148 M138 0 C138 44.25, 138 88.5, 138 148 M138 148 C94.26 148, 50.52 148, 0 148 M138 148 C95.93 148, 53.85 148, 0 148 M0 148 C0 102.84, 0 57.68, 0 0 M0 148 C0 105.63, 0 63.26, 0 0" stroke="#1e1e1e" stroke-width="1" fill="none"></path></g><g stroke-linecap="round" transform="translate(743.305419921875 628.25) rotate(0 69 74)"><path d="M0 0 C42.33 0, 84.65 0, 138 0 M0 0 C52.47 0, 104.94 0, 138 0 M138 0 C138 54.93, 138 109.86, 138 148 M138 0 C138 33.85, 138 67.71, 138 148 M138 148 C100.33 148, 62.66 148, 0 148 M138 148 C103.81 148, 69.63 148, 0 148 M0 148 C0 90.63, 0 33.25, 0 0 M0 148 C0 105.45, 0 62.91, 0 0" stroke="#1e1e1e" stroke-width="1" fill="none"></path></g><g stroke-linecap="round" transform="translate(882.305419921875 628.25) rotate(0 69 74)"><path d="M0 0 C34.18 0, 68.37 0, 138 0 M0 0 C32.89 0, 65.78 0, 138 0 M138 0 C138 36.42, 138 72.84, 138 148 M138 0 C138 58.68, 138 117.36, 138 148 M138 148 C85.03 148, 32.07 148, 0 148 M138 148 C107.72 148, 77.44 148, 0 148 M0 148 C0 92.36, 0 36.73, 0 0 M0 148 C0 104.89, 0 61.78, 0 0" stroke="#1e1e1e" stroke-width="1" fill="none"></path></g><g transform="translate(355.305419921875 594.25) rotate(0 47.8076171875 11.5)"><text x="0" y="0" font-family="Helvetica, Segoe UI Emoji" font-size="20px" fill="#1e1e1e" text-anchor="start" style="white-space: pre;" direction="ltr" dominant-baseline="text-before-edge">posicion: 0</text></g><g transform="translate(488.305419921875 592.25) rotate(0 47.8076171875 11.5)"><text x="0" y="0" font-family="Helvetica, Segoe UI Emoji" font-size="20px" fill="#1e1e1e" text-anchor="start" style="white-space: pre;" direction="ltr" dominant-baseline="text-before-edge">posicion: 1</text></g><g transform="translate(630.305419921875 594.25) rotate(0 47.8076171875 11.5)"><text x="0" y="0" font-family="Helvetica, Segoe UI Emoji" font-size="20px" fill="#1e1e1e" text-anchor="start" style="white-space: pre;" direction="ltr" dominant-baseline="text-before-edge">posicion: 2</text></g><g transform="translate(763.305419921875 596.25) rotate(0 47.8076171875 11.5)"><text x="0" y="0" font-family="Helvetica, Segoe UI Emoji" font-size="20px" fill="#1e1e1e" text-anchor="start" style="white-space: pre;" direction="ltr" dominant-baseline="text-before-edge">posicion: 3</text></g><g transform="translate(907.305419921875 595.25) rotate(0 47.8076171875 11.5)"><text x="0" y="0" font-family="Helvetica, Segoe UI Emoji" font-size="20px" fill="#1e1e1e" text-anchor="start" style="white-space: pre;" direction="ltr" dominant-baseline="text-before-edge">posicion: 4</text></g><g stroke-linecap="round"><g transform="translate(817.305419921875 791.25) rotate(0 0 47)"><path d="M0 0 C0 30.94, 0 61.88, 0 94 M0 0 C0 34.6, 0 69.2, 0 94" stroke="#1e1e1e" stroke-width="1" fill="none"></path></g><g transform="translate(817.305419921875 791.25) rotate(0 0 47)"><path d="M-10.26 65.81 C-6.88 75.09, -3.51 84.37, 0 94 M-10.26 65.81 C-6.48 76.19, -2.71 86.56, 0 94" stroke="#1e1e1e" stroke-width="1" fill="none"></path></g><g transform="translate(817.305419921875 791.25) rotate(0 0 47)"><path d="M10.26 65.81 C6.88 75.09, 3.51 84.37, 0 94 M10.26 65.81 C6.48 76.19, 2.71 86.56, 0 94" stroke="#1e1e1e" stroke-width="1" fill="none"></path></g></g><mask></mask><g stroke-linecap="round" transform="translate(752.305419921875 895.25) rotate(0 65 65)"><path d="M0 0 C27.05 0, 54.1 0, 130 0 M0 0 C42.5 0, 85 0, 130 0 M130 0 C130 30.04, 130 60.09, 130 130 M130 0 C130 43.87, 130 87.73, 130 130 M130 130 C96.92 130, 63.85 130, 0 130 M130 130 C91.76 130, 53.52 130, 0 130 M0 130 C0 86.78, 0 43.56, 0 0 M0 130 C0 83.72, 0 37.44, 0 0" stroke="#1e1e1e" stroke-width="1" fill="none"></path></g><g stroke-linecap="round"><g transform="translate(391.305419921875 795.25) rotate(0 0 47)"><path d="M0 0 C0 22.33, 0 44.67, 0 94 M0 0 C0 28.1, 0 56.21, 0 94" stroke="#1e1e1e" stroke-width="1" fill="none"></path></g><g transform="translate(391.305419921875 795.25) rotate(0 0 47)"><path d="M-10.26 65.81 C-7.82 72.51, -5.39 79.2, 0 94 M-10.26 65.81 C-7.19 74.24, -4.12 82.67, 0 94" stroke="#1e1e1e" stroke-width="1" fill="none"></path></g><g transform="translate(391.305419921875 795.25) rotate(0 0 47)"><path d="M10.26 65.81 C7.82 72.51, 5.39 79.2, 0 94 M10.26 65.81 C7.19 74.24, 4.12 82.67, 0 94" stroke="#1e1e1e" stroke-width="1" fill="none"></path></g></g><mask></mask><g stroke-linecap="round" transform="translate(326.305419921875 899.25) rotate(0 65 65)"><path d="M0 0 C48.25 0, 96.5 0, 130 0 M0 0 C29.74 0, 59.47 0, 130 0 M130 0 C130 35.48, 130 70.97, 130 130 M130 0 C130 32.2, 130 64.41, 130 130 M130 130 C79.6 130, 29.21 130, 0 130 M130 130 C92.63 130, 55.26 130, 0 130 M0 130 C0 88.86, 0 47.72, 0 0 M0 130 C0 87.05, 0 44.09, 0 0" stroke="#1e1e1e" stroke-width="1" fill="none"></path></g><g stroke-linecap="round"><g transform="translate(672.305419921875 789.25) rotate(0 0 47)"><path d="M0 0 C0 19.52, 0 39.04, 0 94 M0 0 C0 25.23, 0 50.47, 0 94" stroke="#1e1e1e" stroke-width="1" fill="none"></path></g><g transform="translate(672.305419921875 789.25) rotate(0 0 47)"><path d="M-10.26 65.81 C-8.13 71.66, -6 77.52, 0 94 M-10.26 65.81 C-7.51 73.38, -4.75 80.94, 0 94" stroke="#1e1e1e" stroke-width="1" fill="none"></path></g><g transform="translate(672.305419921875 789.25) rotate(0 0 47)"><path d="M10.26 65.81 C8.13 71.66, 6 77.52, 0 94 M10.26 65.81 C7.51 73.38, 4.75 80.94, 0 94" stroke="#1e1e1e" stroke-width="1" fill="none"></path></g></g><mask></mask><g stroke-linecap="round" transform="translate(607.305419921875 893.25) rotate(0 65 65)"><path d="M0 0 C44.87 0, 89.75 0, 130 0 M0 0 C36.88 0, 73.76 0, 130 0 M130 0 C130 47.51, 130 95.02, 130 130 M130 0 C130 29.78, 130 59.55, 130 130 M130 130 C88.35 130, 46.7 130, 0 130 M130 130 C81.37 130, 32.75 130, 0 130 M0 130 C0 92.56, 0 55.12, 0 0 M0 130 C0 101.67, 0 73.33, 0 0" stroke="#1e1e1e" stroke-width="1" fill="none"></path></g><g stroke-linecap="round" transform="translate(903.694580078125 896) rotate(0 65 65)"><path d="M0 0 C29.63 0, 59.27 0, 130 0 M0 0 C29.87 0, 59.74 0, 130 0 M130 0 C130 37.75, 130 75.5, 130 130 M130 0 C130 48.78, 130 97.57, 130 130 M130 130 C92.93 130, 55.86 130, 0 130 M130 130 C91.67 130, 53.35 130, 0 130 M0 130 C0 99.43, 0 68.86, 0 0 M0 130 C0 98.82, 0 67.64, 0 0" stroke="#1e1e1e" stroke-width="1" fill="none"></path></g><g transform="translate(919.305419921875 865.25) rotate(0 47.8076171875 11.5)"><text x="0" y="0" font-family="Helvetica, Segoe UI Emoji" font-size="20px" fill="#1e1e1e" text-anchor="start" style="white-space: pre;" direction="ltr" dominant-baseline="text-before-edge">posicion: 3</text></g><g stroke-linecap="round"><g transform="translate(961 793) rotate(0 0.5 32)"><path d="M0 0 C0.2 12.95, 0.4 25.91, 1 64 M0 0 C0.2 13.1, 0.41 26.2, 1 64" stroke="#1e1e1e" stroke-width="1" fill="none"></path></g><g transform="translate(961 793) rotate(0 0.5 32)"><path d="M-9.7 35.97 C-7.53 41.65, -5.37 47.32, 1 64 M-9.7 35.97 C-7.51 41.71, -5.32 47.44, 1 64" stroke="#1e1e1e" stroke-width="1" fill="none"></path></g><g transform="translate(961 793) rotate(0 0.5 32)"><path d="M10.82 35.65 C8.83 41.39, 6.84 47.13, 1 64 M10.82 35.65 C8.81 41.45, 6.8 47.26, 1 64" stroke="#1e1e1e" stroke-width="1" fill="none"></path></g></g><mask></mask><g transform="translate(1051 851) rotate(0 217.9150390625 11.5)"><text x="0" y="0" font-family="Helvetica, Segoe UI Emoji" font-size="20px" fill="#1e1e1e" text-anchor="start" style="white-space: pre;" direction="ltr" dominant-baseline="text-before-edge">como ya esta ocupada, va a la siguiente posicion</text></g><g stroke-linecap="round"><g transform="translate(10 565) rotate(0 575.5 -0.5)"><path d="M0 0 C261.3 -0.23, 522.61 -0.45, 1151 -1 M0 0 C441.96 -0.38, 883.92 -0.77, 1151 -1" stroke="#1e1e1e" stroke-width="1" fill="none"></path></g></g><mask></mask></svg>